STARTFONT 2.1
FONT -Bitstream-Dutch 801-Medium-R-Normal--15-140-75-75-P-115-DEC-DECmath_Symbol
SIZE 14 75 75
FONTBOUNDINGBOX 19 26 -3 -14

STARTPROPERTIES 26
FONTNAME_REGISTRY ""
FAMILY_NAME "Dutch 801"
FOUNDRY "Bitstream"
WEIGHT_NAME "Medium"
SETWIDTH_NAME "Normal"
SLANT "R"
ADD_STYLE_NAME ""
PIXEL_SIZE 15
POINT_SIZE 140
RESOLUTION_X 75
RESOLUTION_Y 75
SPACING "P"
AVERAGE_WIDTH 115
CHARSET_REGISTRY "DEC"
CHARSET_ENCODING "DECmath_Symbol"
CAP_HEIGHT 11
X_HEIGHT 0
CHARSET_COLLECTIONS "DEC-DECmath_Symbol"
FULL_NAME "Dutch 801 Roman DECmath_Symbol"
COPYRIGHT "Copyright 1989 by Bitstream, Inc. and Digital Equipment Corp. All rights reserved."
NOTICE "Dutch 801 is a registered trademark of Bitstream, Inc."
WEIGHT 10
QUAD_WIDTH 9
DEFAULT_CHAR 32
FONT_DESCENT 14
FONT_ASCENT 12
ENDPROPERTIES

CHARS 128

STARTCHAR arrowleft
ENCODING 32
SWIDTH 1000 0
DWIDTH 15 0
BBX 13 5 1 3
BITMAP
1800
6000
FFF8
6000
1800
ENDCHAR

STARTCHAR arrowright
ENCODING 33
SWIDTH 1000 0
DWIDTH 15 0
BBX 13 5 1 3
BITMAP
00C0
0030
FFF8
0030
00C0
ENDCHAR

STARTCHAR arrowup
ENCODING 34
SWIDTH 500 0
DWIDTH 7 0
BBX 5 13 1 -1
BITMAP
20
70
70
A8
A8
20
20
20
20
20
20
20
20
ENDCHAR

STARTCHAR arrowdown
ENCODING 35
SWIDTH 500 0
DWIDTH 7 0
BBX 5 13 1 -1
BITMAP
20
20
20
20
20
20
20
20
A8
A8
70
70
20
ENDCHAR

STARTCHAR arrowboth
ENCODING 36
SWIDTH 1000 0
DWIDTH 15 0
BBX 13 5 1 3
BITMAP
18C0
6030
FFF8
6030
18C0
ENDCHAR

STARTCHAR arrownortheast
ENCODING 37
SWIDTH 1000 0
DWIDTH 15 0
BBX 13 13 1 -2
BITMAP
0018
00F8
0030
0050
0090
0100
0200
0400
0800
1000
2000
4000
8000
ENDCHAR

STARTCHAR arrowsoutheast
ENCODING 38
SWIDTH 1000 0
DWIDTH 15 0
BBX 13 13 1 -2
BITMAP
8000
4000
2000
1000
0800
0400
0200
0100
0090
0050
0030
00F8
0018
ENDCHAR

STARTCHAR similarequal
ENCODING 39
SWIDTH 1000 0
DWIDTH 15 0
BBX 10 5 3 2
BITMAP
7840
8780
0000
0000
FFC0
ENDCHAR

STARTCHAR arrowdblleft
ENCODING 40
SWIDTH 1000 0
DWIDTH 15 0
BBX 13 6 1 2
BITMAP
1000
3FF8
C000
C000
3FF8
1000
ENDCHAR

STARTCHAR arrowdblright
ENCODING 41
SWIDTH 1000 0
DWIDTH 15 0
BBX 13 6 1 2
BITMAP
0040
FFE0
0018
0018
FFE0
0040
ENDCHAR

STARTCHAR arrowdblup
ENCODING 42
SWIDTH 500 0
DWIDTH 7 0
BBX 6 15 1 -3
BITMAP
30
30
48
CC
48
48
48
48
48
48
48
48
48
48
48
ENDCHAR

STARTCHAR arrowdbldown
ENCODING 43
SWIDTH 500 0
DWIDTH 7 0
BBX 6 15 1 -3
BITMAP
48
48
48
48
48
48
48
48
48
48
48
CC
48
30
30
ENDCHAR

STARTCHAR arrowdblboth
ENCODING 44
SWIDTH 1000 0
DWIDTH 15 0
BBX 13 6 1 2
BITMAP
1040
3FE0
C018
C018
3FE0
1040
ENDCHAR

STARTCHAR arrownorthwest
ENCODING 45
SWIDTH 1000 0
DWIDTH 15 0
BBX 13 13 1 -2
BITMAP
C000
F800
6000
5000
4800
0400
0200
0100
0080
0040
0020
0010
0008
ENDCHAR

STARTCHAR arrowsouthwest
ENCODING 46
SWIDTH 1000 0
DWIDTH 15 0
BBX 13 13 1 -2
BITMAP
0008
0010
0020
0040
0080
0100
0200
0400
4800
5000
6000
F800
C000
ENDCHAR

STARTCHAR proportional
ENCODING 47
SWIDTH 1000 0
DWIDTH 15 0
BBX 9 6 3 2
BITMAP
3180
4A00
8400
8400
4A00
3180
ENDCHAR

STARTCHAR prime
ENCODING 48
SWIDTH 278 0
DWIDTH 4 0
BBX 3 7 1 3
BITMAP
60
60
40
40
C0
80
80
ENDCHAR

STARTCHAR infinity
ENCODING 49
SWIDTH 833 0
DWIDTH 12 0
BBX 11 6 1 2
BITMAP
3180
4A40
8420
8420
4A40
3180
ENDCHAR

STARTCHAR element
ENCODING 50
SWIDTH 1000 0
DWIDTH 15 0
BBX 10 9 3 1
BITMAP
1FC0
6000
4000
8000
FFC0
8000
4000
6000
1FC0
ENDCHAR

STARTCHAR suchthat
ENCODING 51
SWIDTH 1000 0
DWIDTH 15 0
BBX 10 9 3 1
BITMAP
FE00
0180
0080
0040
FFC0
0040
0080
0180
FE00
ENDCHAR

STARTCHAR trianglelgup
ENCODING 52
SWIDTH 1000 0
DWIDTH 15 0
BBX 11 12 2 0
BITMAP
0400
0A00
0A00
1100
1100
2080
2080
4040
4040
8020
8020
FFE0
ENDCHAR

STARTCHAR trianglelgdown
ENCODING 53
SWIDTH 1000 0
DWIDTH 15 0
BBX 11 12 2 -2
BITMAP
FFE0
8020
8020
4040
4040
2080
2080
1100
1100
0A00
0A00
0400
ENDCHAR

STARTCHAR slashnegate
ENCODING 54
SWIDTH 0 0
DWIDTH 7 0
BBX 6 15 1 -3
BITMAP
04
04
08
08
08
10
10
10
20
20
40
40
40
80
80
ENDCHAR

STARTCHAR mapsto
ENCODING 55
SWIDTH 0 0
DWIDTH 2 0
BBX 2 5 1 3
BITMAP
80
80
C0
80
80
ENDCHAR

STARTCHAR universal
ENCODING 56
SWIDTH 637 0
DWIDTH 9 0
BBX 9 10 0 0
BITMAP
8080
8080
4100
7F00
2200
2200
1400
1400
0800
0800
ENDCHAR

STARTCHAR existential
ENCODING 57
SWIDTH 639 0
DWIDTH 9 0
BBX 7 10 1 0
BITMAP
FE
02
02
02
FE
02
02
02
02
FE
ENDCHAR

STARTCHAR logicalnot
ENCODING 58
SWIDTH 833 0
DWIDTH 12 0
BBX 8 4 2 3
BITMAP
FF
01
01
01
ENDCHAR

STARTCHAR emptyset
ENCODING 59
SWIDTH 500 0
DWIDTH 7 0
BBX 7 13 0 -1
BITMAP
02
3A
44
8A
8A
92
92
92
A2
A2
44
B8
80
ENDCHAR

STARTCHAR Rfraktur
ENCODING 60
SWIDTH 794 0
DWIDTH 10 0
BBX 11 12 -1 -1
BITMAP
3180
4AC0
4C60
2C20
2C40
AF80
4D80
0D80
0D80
0DA0
2DA0
18C0
ENDCHAR

STARTCHAR Ifraktur
ENCODING 61
SWIDTH 699 0
DWIDTH 10 0
BBX 8 13 1 -1
BITMAP
30
5D
47
40
43
26
06
06
03
61
B1
9A
0C
ENDCHAR

STARTCHAR latticetop
ENCODING 62
SWIDTH 778 0
DWIDTH 11 0
BBX 9 11 1 0
BITMAP
FF80
0800
0800
0800
0800
0800
0800
0800
0800
0800
0800
ENDCHAR

STARTCHAR latticebot
ENCODING 63
SWIDTH 778 0
DWIDTH 11 0
BBX 9 11 1 0
BITMAP
0800
0800
0800
0800
0800
0800
0800
0800
0800
0800
FF80
ENDCHAR

STARTCHAR aleph
ENCODING 64
SWIDTH 602 0
DWIDTH 9 0
BBX 8 11 1 0
BITMAP
84
C7
C3
65
38
58
5C
8E
C7
C3
C1
ENDCHAR

STARTCHAR Acursive
ENCODING 65
SWIDTH 630 0
DWIDTH 9 0
BBX 10 12 -2 -1
BITMAP
0080
0180
0380
0280
0480
0480
1F80
0880
5080
90C0
A180
C000
ENDCHAR

STARTCHAR Bcursive
ENCODING 66
SWIDTH 613 0
DWIDTH 9 0
BBX 9 11 0 0
BITMAP
0980
3A80
1480
1900
3200
2C00
2600
4200
5200
D400
9800
ENDCHAR

STARTCHAR Ccursive
ENCODING 67
SWIDTH 546 0
DWIDTH 8 0
BBX 9 11 0 0
BITMAP
0300
0D80
1080
2100
6200
4400
C000
8200
8400
D800
7000
ENDCHAR

STARTCHAR Dcursive
ENCODING 68
SWIDTH 722 0
DWIDTH 10 0
BBX 11 11 -1 0
BITMAP
0780
1AC0
2460
4460
4820
0820
1040
1040
2080
7700
9C00
ENDCHAR

STARTCHAR Ecursive
ENCODING 69
SWIDTH 535 0
DWIDTH 8 0
BBX 8 11 0 0
BITMAP
06
1B
12
30
30
1C
20
40
C2
C4
78
ENDCHAR

STARTCHAR Fcursive
ENCODING 70
SWIDTH 558 0
DWIDTH 8 0
BBX 8 11 1 0
BITMAP
38
4F
44
04
08
7C
08
50
90
A0
C0
ENDCHAR

STARTCHAR Gcursive
ENCODING 71
SWIDTH 595 0
DWIDTH 9 0
BBX 9 14 0 -3
BITMAP
0300
0D80
1100
2200
6000
4F00
C200
8200
8400
CC00
7800
0800
7000
2000
ENDCHAR

STARTCHAR Hcursive
ENCODING 72
SWIDTH 722 0
DWIDTH 10 0
BBX 13 11 -2 0
BITMAP
0708
0A10
0210
0630
0420
1FF0
0840
0840
10C0
30A0
E0C0
ENDCHAR

STARTCHAR Icursive
ENCODING 73
SWIDTH 431 0
DWIDTH 6 0
BBX 7 12 -1 -1
BITMAP
1E
24
2C
08
08
18
10
10
B0
A0
A0
C0
ENDCHAR

STARTCHAR Jcursive
ENCODING 74
SWIDTH 475 0
DWIDTH 7 0
BBX 8 13 -1 -2
BITMAP
0F
12
16
24
24
0C
08
08
18
50
90
A0
C0
ENDCHAR

STARTCHAR Kcursive
ENCODING 75
SWIDTH 676 0
DWIDTH 10 0
BBX 11 11 -1 0
BITMAP
1C20
2860
08C0
1180
1200
1400
2C00
3400
6680
4300
8200
ENDCHAR

STARTCHAR Lcursive
ENCODING 76
SWIDTH 602 0
DWIDTH 9 0
BBX 10 12 -1 -1
BITMAP
0180
02C0
0480
0D00
0800
0800
1800
1000
1000
7880
CD00
0600
ENDCHAR

STARTCHAR Mcursive
ENCODING 77
SWIDTH 896 0
DWIDTH 13 0
BBX 15 13 -3 -2
BITMAP
0182
0386
0084
008C
0194
0294
04AC
04A8
08C8
518A
911C
E008
4000
ENDCHAR

STARTCHAR Ncursive
ENCODING 78
SWIDTH 722 0
DWIDTH 10 0
BBX 12 13 -2 -2
BITMAP
0410
0E70
1210
0610
0520
0920
0920
1140
1140
A180
A180
C100
4000
ENDCHAR

STARTCHAR Ocursive
ENCODING 79
SWIDTH 671 0
DWIDTH 10 0
BBX 10 11 0 0
BITMAP
0180
02C0
0A40
1440
2040
6080
4080
C100
8200
C400
7800
ENDCHAR

STARTCHAR Pcursive
ENCODING 80
SWIDTH 593 0
DWIDTH 9 0
BBX 9 11 0 0
BITMAP
0900
3B80
1480
1880
3100
2200
2400
7800
4000
5000
E000
ENDCHAR

STARTCHAR Qcursive
ENCODING 81
SWIDTH 676 0
DWIDTH 10 0
BBX 10 12 0 -1
BITMAP
0380
0CC0
1040
2040
4040
4040
6480
3880
0100
4600
F880
0F00
ENDCHAR

STARTCHAR Rcursive
ENCODING 82
SWIDTH 662 0
DWIDTH 10 0
BBX 9 11 0 0
BITMAP
0900
3B80
1480
1980
3100
3A00
2C00
6400
4680
4300
C200
ENDCHAR

STARTCHAR Scursive
ENCODING 83
SWIDTH 523 0
DWIDTH 8 0
BBX 8 11 0 0
BITMAP
06
1B
21
22
30
18
0C
44
84
C8
70
ENDCHAR

STARTCHAR Tcursive
ENCODING 84
SWIDTH 650 0
DWIDTH 9 0
BBX 9 11 1 0
BITMAP
6080
BF00
0800
1000
2000
2000
4000
4200
4400
6800
3000
ENDCHAR

STARTCHAR Ucursive
ENCODING 85
SWIDTH 699 0
DWIDTH 10 0
BBX 10 11 0 0
BITMAP
0840
7880
1180
3100
2300
2200
6600
4400
CC00
9500
E600
ENDCHAR

STARTCHAR Vcursive
ENCODING 86
SWIDTH 569 0
DWIDTH 8 0
BBX 8 11 0 0
BITMAP
21
E1
23
22
62
44
44
C8
90
A0
C0
ENDCHAR

STARTCHAR Wcursive
ENCODING 87
SWIDTH 792 0
DWIDTH 11 0
BBX 11 11 0 0
BITMAP
2220
E220
2260
2640
6440
4480
4C80
C900
9900
AA00
CC00
ENDCHAR

STARTCHAR Xcursive
ENCODING 88
SWIDTH 722 0
DWIDTH 10 0
BBX 12 12 -1 -1
BITMAP
0420
1C70
0680
0280
0300
0200
0600
0600
0A40
9240
A280
C300
ENDCHAR

STARTCHAR Ycursive
ENCODING 89
SWIDTH 625 0
DWIDTH 9 0
BBX 9 14 0 -3
BITMAP
1080
7080
1180
1100
3100
2200
2200
6400
4C00
5800
6800
1000
A000
C000
ENDCHAR

STARTCHAR Zcursive
ENCODING 90
SWIDTH 588 0
DWIDTH 9 0
BBX 10 12 0 -1
BITMAP
0E40
1380
2100
0200
0400
0800
0800
1000
2000
7100
9A00
0C00
ENDCHAR

STARTCHAR union
ENCODING 91
SWIDTH 1000 0
DWIDTH 15 0
BBX 9 10 3 0
BITMAP
8080
8080
8080
8080
8080
8080
8080
4100
6300
1C00
ENDCHAR

STARTCHAR intersection
ENCODING 92
SWIDTH 1000 0
DWIDTH 15 0
BBX 9 10 3 0
BITMAP
1C00
6300
4100
8080
8080
8080
8080
8080
8080
8080
ENDCHAR

STARTCHAR unionmultiset
ENCODING 93
SWIDTH 1000 0
DWIDTH 15 0
BBX 9 10 3 0
BITMAP
8080
8080
8880
8880
BE80
8880
8880
4100
6300
1C00
ENDCHAR

STARTCHAR logicaland
ENCODING 94
SWIDTH 1000 0
DWIDTH 15 0
BBX 11 11 2 0
BITMAP
0400
0A00
0A00
1100
1100
2080
2080
4040
4040
8020
8020
ENDCHAR

STARTCHAR logicalor
ENCODING 95
SWIDTH 1000 0
DWIDTH 15 0
BBX 11 11 2 0
BITMAP
8020
8020
4040
4040
2080
2080
1100
1100
0A00
0A00
0400
ENDCHAR

STARTCHAR turnstileleft
ENCODING 96
SWIDTH 611 0
DWIDTH 9 0
BBX 7 11 1 0
BITMAP
80
80
80
80
80
FE
80
80
80
80
80
ENDCHAR

STARTCHAR turnstileright
ENCODING 97
SWIDTH 611 0
DWIDTH 9 0
BBX 7 11 1 0
BITMAP
02
02
02
02
02
FE
02
02
02
02
02
ENDCHAR

STARTCHAR bracketleftbt
ENCODING 98
SWIDTH 528 0
DWIDTH 8 0
BBX 4 15 3 -3
BITMAP
80
80
80
80
80
80
80
80
80
80
80
80
80
80
F0
ENDCHAR

STARTCHAR bracketrightbt
ENCODING 99
SWIDTH 528 0
DWIDTH 8 0
BBX 4 15 1 -3
BITMAP
10
10
10
10
10
10
10
10
10
10
10
10
10
10
F0
ENDCHAR

STARTCHAR bracketlefttp
ENCODING 100
SWIDTH 528 0
DWIDTH 8 0
BBX 4 15 3 -3
BITMAP
F0
80
80
80
80
80
80
80
80
80
80
80
80
80
80
ENDCHAR

STARTCHAR bracketrighttp
ENCODING 101
SWIDTH 528 0
DWIDTH 8 0
BBX 4 15 1 -3
BITMAP
F0
10
10
10
10
10
10
10
10
10
10
10
10
10
10
ENDCHAR

STARTCHAR braceleft
ENCODING 102
SWIDTH 500 0
DWIDTH 7 0
BBX 5 15 1 -3
BITMAP
18
20
20
20
20
20
60
80
60
20
20
20
20
20
18
ENDCHAR

STARTCHAR braceright
ENCODING 103
SWIDTH 500 0
DWIDTH 7 0
BBX 5 15 1 -3
BITMAP
C0
20
20
20
20
20
30
08
30
20
20
20
20
20
C0
ENDCHAR

STARTCHAR angleleft
ENCODING 104
SWIDTH 333 0
DWIDTH 5 0
BBX 4 15 1 -4
BITMAP
10
10
20
20
40
40
80
80
80
40
40
20
20
10
10
ENDCHAR

STARTCHAR angleright
ENCODING 105
SWIDTH 333 0
DWIDTH 5 0
BBX 4 15 1 -4
BITMAP
80
80
40
40
20
20
10
10
10
20
20
40
40
80
80
ENDCHAR

STARTCHAR bar
ENCODING 106
SWIDTH 602 0
DWIDTH 9 0
BBX 1 15 4 -3
BITMAP
80
80
80
80
80
80
80
80
80
80
80
80
80
80
80
ENDCHAR

STARTCHAR bardbl
ENCODING 107
SWIDTH 1000 0
DWIDTH 15 0
BBX 4 15 6 -3
BITMAP
90
90
90
90
90
90
90
90
90
90
90
90
90
90
90
ENDCHAR

STARTCHAR arrowupdown
ENCODING 108
SWIDTH 500 0
DWIDTH 7 0
BBX 5 15 1 -3
BITMAP
20
70
70
A8
A8
20
20
20
20
20
A8
A8
70
70
20
ENDCHAR

STARTCHAR arrowdblupdown
ENCODING 109
SWIDTH 500 0
DWIDTH 7 0
BBX 6 15 1 -3
BITMAP
30
30
48
CC
48
48
48
48
48
48
48
CC
48
30
30
ENDCHAR

STARTCHAR backslash
ENCODING 110
SWIDTH 500 0
DWIDTH 7 0
BBX 6 15 1 -3
BITMAP
80
80
40
40
40
20
20
20
10
10
08
08
08
04
04
ENDCHAR

STARTCHAR wreathproduct
ENCODING 111
SWIDTH 278 0
DWIDTH 4 0
BBX 3 9 1 -1
BITMAP
C0
20
20
20
40
80
80
80
60
ENDCHAR

STARTCHAR radical
ENCODING 112
SWIDTH 1000 0
DWIDTH 15 0
BBX 13 14 2 -14
BITMAP
0008
0010
0010
0020
0020
6040
6040
B080
3080
1900
1900
0E00
0E00
0400
ENDCHAR

STARTCHAR coproduct
ENCODING 113
SWIDTH 768 0
DWIDTH 11 0
BBX 10 10 1 0
BITMAP
F3C0
6180
6180
6180
6180
6180
6180
6180
6180
FFC0
ENDCHAR

STARTCHAR gradient
ENCODING 114
SWIDTH 713 0
DWIDTH 10 0
BBX 10 10 0 0
BITMAP
FFC0
C080
6100
6100
3200
3200
1400
1C00
0800
0800
ENDCHAR

STARTCHAR integral
ENCODING 115
SWIDTH 274 0
DWIDTH 4 0
BBX 7 14 -1 -2
BITMAP
0C
12
10
10
10
10
10
10
10
10
10
10
90
60
ENDCHAR

STARTCHAR unionsqr
ENCODING 116
SWIDTH 1000 0
DWIDTH 15 0
BBX 9 9 3 0
BITMAP
8080
8080
8080
8080
8080
8080
8080
8080
FF80
ENDCHAR

STARTCHAR intersectsqr
ENCODING 117
SWIDTH 1000 0
DWIDTH 15 0
BBX 9 9 3 0
BITMAP
FF80
8080
8080
8080
8080
8080
8080
8080
8080
ENDCHAR

STARTCHAR reflsubsetsq
ENCODING 118
SWIDTH 1000 0
DWIDTH 15 0
BBX 9 11 3 -2
BITMAP
FF80
8000
8000
8000
8000
8000
8000
8000
FF80
0000
FF80
ENDCHAR

STARTCHAR reflsupersetsq
ENCODING 119
SWIDTH 1000 0
DWIDTH 15 0
BBX 9 11 3 -2
BITMAP
FF80
0080
0080
0080
0080
0080
0080
0080
FF80
0000
FF80
ENDCHAR

STARTCHAR section
ENCODING 120
SWIDTH 500 0
DWIDTH 7 0
BBX 6 12 1 -1
BITMAP
38
4C
40
30
58
8C
C4
68
30
08
C8
70
ENDCHAR

STARTCHAR dagger
ENCODING 121
SWIDTH 500 0
DWIDTH 7 0
BBX 5 12 1 -1
BITMAP
20
20
20
F8
20
20
20
20
20
20
20
20
ENDCHAR

STARTCHAR daggerdbl
ENCODING 122
SWIDTH 500 0
DWIDTH 7 0
BBX 5 12 1 -1
BITMAP
20
20
20
F8
20
20
20
20
F8
20
20
20
ENDCHAR

STARTCHAR paragraph
ENCODING 123
SWIDTH 500 0
DWIDTH 7 0
BBX 7 12 0 -1
BITMAP
3E
74
F4
F4
74
34
14
14
14
14
14
14
ENDCHAR

STARTCHAR clubsuit
ENCODING 124
SWIDTH 1150 0
DWIDTH 17 0
BBX 14 13 2 -1
BITMAP
0780
0FC0
0FC0
0780
7338
FB7C
FFFC
FFFC
FB7C
7338
0300
0780
0FC0
ENDCHAR

STARTCHAR diamondsuit
ENCODING 125
SWIDTH 1148 0
DWIDTH 17 0
BBX 13 13 2 -1
BITMAP
0200
0500
0880
1040
2020
4010
8008
4010
2020
1040
0880
0500
0200
ENDCHAR

STARTCHAR heartsuit
ENCODING 126
SWIDTH 1147 0
DWIDTH 17 0
BBX 13 13 2 -1
BITMAP
38E0
4510
8208
8208
8008
8008
4010
4010
2020
1040
0880
0500
0200
ENDCHAR

STARTCHAR spadesuit
ENCODING 127
SWIDTH 1148 0
DWIDTH 17 0
BBX 12 13 3 -1
BITMAP
0600
0600
0F00
1F80
3FC0
7FE0
7FE0
FFF0
FFF0
F6F0
6660
0F00
1F80
ENDCHAR

STARTCHAR minus
ENCODING 160
SWIDTH 833 0
DWIDTH 12 0
BBX 8 1 2 5
BITMAP
FF
ENDCHAR

STARTCHAR dotmath
ENCODING 161
SWIDTH 572 0
DWIDTH 8 0
BBX 2 2 3 5
BITMAP
C0
C0
ENDCHAR

STARTCHAR multiply
ENCODING 162
SWIDTH 833 0
DWIDTH 12 0
BBX 8 8 2 1
BITMAP
81
42
24
18
18
24
42
81
ENDCHAR

STARTCHAR asteriskmath
ENCODING 163
SWIDTH 1000 0
DWIDTH 15 0
BBX 5 6 5 2
BITMAP
20
A8
70
70
A8
20
ENDCHAR

STARTCHAR divide
ENCODING 164
SWIDTH 833 0
DWIDTH 12 0
BBX 8 7 2 2
BITMAP
18
18
00
FF
00
18
18
ENDCHAR

STARTCHAR diamondop
ENCODING 165
SWIDTH 500 0
DWIDTH 7 0
BBX 7 7 0 1
BITMAP
10
28
44
82
44
28
10
ENDCHAR

STARTCHAR plusminus
ENCODING 166
SWIDTH 833 0
DWIDTH 12 0
BBX 9 10 2 0
BITMAP
0800
0800
0800
0800
FF80
0800
0800
0800
0800
FF80
ENDCHAR

STARTCHAR minusplus
ENCODING 167
SWIDTH 833 0
DWIDTH 12 0
BBX 9 10 2 0
BITMAP
FF80
0800
0800
0800
0800
FF80
0800
0800
0800
0800
ENDCHAR

STARTCHAR circleplus
ENCODING 168
SWIDTH 1000 0
DWIDTH 15 0
BBX 11 11 2 -1
BITMAP
0E00
3580
4440
4440
8420
FFE0
8420
4440
4440
3580
0E00
ENDCHAR

STARTCHAR circleminus
ENCODING 169
SWIDTH 1000 0
DWIDTH 15 0
BBX 11 11 2 -1
BITMAP
0E00
3180
4040
4040
8020
FFE0
8020
4040
4040
3180
0E00
ENDCHAR

STARTCHAR circlemultiply
ENCODING 170
SWIDTH 1000 0
DWIDTH 15 0
BBX 11 11 2 -1
BITMAP
0E00
3180
60C0
5140
8A20
8420
8A20
5140
60C0
3180
0E00
ENDCHAR

STARTCHAR circledivide
ENCODING 171
SWIDTH 1000 0
DWIDTH 15 0
BBX 11 11 2 -1
BITMAP
0E00
3180
40C0
4140
8220
8420
8820
5040
6040
3180
0E00
ENDCHAR

STARTCHAR circledot
ENCODING 172
SWIDTH 1000 0
DWIDTH 15 0
BBX 11 11 2 -1
BITMAP
0E00
3180
4040
4040
8020
8420
8020
4040
4040
3180
0E00
ENDCHAR

STARTCHAR overlaycircle
ENCODING 173
SWIDTH 1000 0
DWIDTH 15 0
BBX 15 15 0 -3
BITMAP
07C0
1830
2008
4004
4004
8002
8002
8002
8002
8002
4004
4004
2008
1830
07C0
ENDCHAR

STARTCHAR circleop
ENCODING 174
SWIDTH 500 0
DWIDTH 7 0
BBX 6 6 1 1
BITMAP
30
48
84
84
48
30
ENDCHAR

STARTCHAR bullet
ENCODING 175
SWIDTH 500 0
DWIDTH 7 0
BBX 6 6 1 1
BITMAP
30
78
FC
FC
78
30
ENDCHAR

STARTCHAR hardyequiv
ENCODING 176
SWIDTH 1000 0
DWIDTH 15 0
BBX 9 5 3 3
BITMAP
C180
3E00
0000
3E00
C180
ENDCHAR

STARTCHAR equivalence
ENCODING 177
SWIDTH 1000 0
DWIDTH 15 0
BBX 9 7 3 1
BITMAP
FF80
0000
0000
FF80
0000
0000
FF80
ENDCHAR

STARTCHAR reflexsubset
ENCODING 178
SWIDTH 1000 0
DWIDTH 15 0
BBX 10 11 3 -1
BITMAP
1FC0
6000
4000
8000
8000
8000
4000
6000
1FC0
0000
FFC0
ENDCHAR

STARTCHAR reflexsuperset
ENCODING 179
SWIDTH 1000 0
DWIDTH 15 0
BBX 10 11 3 -1
BITMAP
FE00
0180
0080
0040
0040
0040
0080
0180
FE00
0000
FFC0
ENDCHAR

STARTCHAR lessequal
ENCODING 180
SWIDTH 1000 0
DWIDTH 15 0
BBX 9 9 3 1
BITMAP
0180
0E00
3000
C000
3000
0E00
0180
0000
FF80
ENDCHAR

STARTCHAR greaterequal
ENCODING 181
SWIDTH 1000 0
DWIDTH 15 0
BBX 9 9 3 1
BITMAP
C000
3800
0600
0180
0600
3800
C000
0000
FF80
ENDCHAR

STARTCHAR precedesequal
ENCODING 182
SWIDTH 1000 0
DWIDTH 15 0
BBX 9 9 3 0
BITMAP
0080
0100
1E00
E000
1E00
0100
0080
0000
FF80
ENDCHAR

STARTCHAR followsequal
ENCODING 183
SWIDTH 1000 0
DWIDTH 15 0
BBX 9 9 3 0
BITMAP
8000
4000
3C00
0380
3C00
4000
8000
0000
FF80
ENDCHAR

STARTCHAR similar
ENCODING 184
SWIDTH 1000 0
DWIDTH 15 0
BBX 10 2 3 4
BITMAP
7840
8780
ENDCHAR

STARTCHAR approxequal
ENCODING 185
SWIDTH 1000 0
DWIDTH 15 0
BBX 10 5 3 2
BITMAP
7840
8780
0000
7840
8780
ENDCHAR

STARTCHAR propersubset
ENCODING 186
SWIDTH 1000 0
DWIDTH 15 0
BBX 10 9 3 1
BITMAP
1FC0
6000
4000
8000
8000
8000
4000
6000
1FC0
ENDCHAR

STARTCHAR propersuperset
ENCODING 187
SWIDTH 1000 0
DWIDTH 15 0
BBX 10 9 3 1
BITMAP
FE00
0180
0080
0040
0040
0040
0080
0180
FE00
ENDCHAR

STARTCHAR muchless
ENCODING 188
SWIDTH 1000 0
DWIDTH 15 0
BBX 13 9 1 0
BITMAP
0108
0630
0840
3180
C600
3180
0840
0630
0108
ENDCHAR

STARTCHAR muchgreater
ENCODING 189
SWIDTH 1000 0
DWIDTH 15 0
BBX 13 9 1 0
BITMAP
8400
6300
1080
0C60
0318
0C60
1080
6300
8400
ENDCHAR

STARTCHAR precedes
ENCODING 190
SWIDTH 1000 0
DWIDTH 15 0
BBX 9 7 3 2
BITMAP
0080
0100
1E00
E000
1E00
0100
0080
ENDCHAR

STARTCHAR follows
ENCODING 191
SWIDTH 1000 0
DWIDTH 15 0
BBX 9 7 3 2
BITMAP
8000
4000
3C00
0380
3C00
4000
8000
ENDCHAR
ENDFONT
